<?xml version="1.0" encoding="UTF-8" standalone="no"?>
<!-- Created with Inkscape (http://www.inkscape.org/) -->

<svg
   width="81.194618mm"
   height="56.140003mm"
   viewBox="0 0 81.194619 56.140002"
   version="1.1"
   id="svg12084"
   inkscape:version="1.1.2 (0a00cf5339, 2022-02-04)"
   sodipodi:docname="rpi.svg"
   xmlns:inkscape="http://www.inkscape.org/namespaces/inkscape"
   xmlns:sodipodi="http://sodipodi.sourceforge.net/DTD/sodipodi-0.dtd"
   xmlns="http://www.w3.org/2000/svg"
   xmlns:svg="http://www.w3.org/2000/svg">
  <sodipodi:namedview
     id="namedview12086"
     pagecolor="#ffffff"
     bordercolor="#666666"
     borderopacity="1.0"
     inkscape:pageshadow="2"
     inkscape:pageopacity="0.0"
     inkscape:pagecheckerboard="0"
     inkscape:document-units="mm"
     showgrid="false"
     fit-margin-top="5"
     fit-margin-left="5"
     fit-margin-right="5"
     fit-margin-bottom="5"
     lock-margins="true"
     inkscape:zoom="1.9373646"
     inkscape:cx="-249.04967"
     inkscape:cy="-115.87907"
     inkscape:window-width="3840"
     inkscape:window-height="2096"
     inkscape:window-x="0"
     inkscape:window-y="0"
     inkscape:window-maximized="1"
     inkscape:current-layer="layer1" />
  <defs
     id="defs12081" />
  <g
     inkscape:label="Layer 1"
     inkscape:groupmode="layer"
     id="layer1"
     transform="translate(-64.24073,-104.60065)">
    <title
       id="__rptl-header-logo">Raspberry Pi</title>
    <g
       fill-rule="nonzero"
       fill="none"
       id="g12099"
       transform="matrix(0.26458333,0,0,0.26458333,69.101974,140.66173)">
      <path
         d="m 65.275,33.317 h -4.477 v 9.46 c 0,0.29 -0.235,0.526 -0.525,0.526 h -4.57 A 0.525,0.525 0 0 1 55.177,42.778 V 16.55 a 0.525,0.525 0 0 1 0.525,-0.525 h 9.61 c 3.223,0 5.709,0.718 7.457,2.154 a 7.437,7.437 0 0 1 2.623,6.09 8.391,8.391 0 0 1 -1.208,4.655 8.24,8.24 0 0 1 -3.663,2.97 l 5.635,10.638 a 0.525,0.525 0 0 1 -0.464,0.77 h -4.917 a 0.63,0.63 0 0 1 -0.56,-0.342 z m -4.477,-4.552 h 4.534 a 4.641,4.641 0 0 0 3.278,-1.078 3.85,3.85 0 0 0 1.162,-2.97 4.122,4.122 0 0 0 -1.096,-3.034 4.556,4.556 0 0 0 -3.363,-1.106 h -4.515 z m 29.628,14.232 a 6.562,6.562 0 0 1 -0.402,-1.511 6.551,6.551 0 0 1 -5.114,2.192 7.195,7.195 0 0 1 -4.937,-1.724 5.542,5.542 0 0 1 -1.958,-4.347 5.73,5.73 0 0 1 2.389,-4.946 c 1.592,-1.148 3.894,-1.73 6.904,-1.742 h 2.491 v -1.162 a 3.342,3.342 0 0 0 -0.72,-2.248 2.838,2.838 0 0 0 -2.277,-0.843 3.226,3.226 0 0 0 -2.145,0.656 2.13,2.13 0 0 0 -0.748,1.37 0.513,0.513 0 0 1 -0.513,0.428 h -4.375 a 0.533,0.533 0 0 1 -0.524,-0.596 5.494,5.494 0 0 1 1.054,-2.663 7.184,7.184 0 0 1 3.073,-2.352 11.2,11.2 0 0 1 4.459,-0.852 8.848,8.848 0 0 1 5.948,1.883 6.587,6.587 0 0 1 2.202,5.292 v 8.787 a 9.948,9.948 0 0 0 0.629,3.93 0.525,0.525 0 0 1 -0.47,0.754 h -4.485 a 0.515,0.515 0 0 1 -0.48,-0.306 z m -4.336,-3.46 c 0.77,0.007 1.529,-0.176 2.21,-0.534 a 3.509,3.509 0 0 0 1.5,-1.433 v -3.485 h -2.024 c -2.71,0 -4.153,0.937 -4.328,2.81 l -0.019,0.319 a 2.166,2.166 0 0 0 0.712,1.667 2.764,2.764 0 0 0 1.949,0.656 z m 23.873,-1.836 a 1.745,1.745 0 0 0 -0.983,-1.564 11.18,11.18 0 0 0 -3.157,-1.021 c -4.822,-1.012 -7.232,-3.06 -7.232,-6.145 a 5.57,5.57 0 0 1 2.24,-4.506 9.031,9.031 0 0 1 5.854,-1.808 9.723,9.723 0 0 1 6.173,1.817 5.699,5.699 0 0 1 2.292,4.175 0.52,0.52 0 0 1 -0.525,0.546 h -4.382 a 0.514,0.514 0 0 1 -0.514,-0.435 2.538,2.538 0 0 0 -0.721,-1.485 3.172,3.172 0 0 0 -2.342,-0.759 3.24,3.24 0 0 0 -2.117,0.619 c -0.483,0.377 -0.76,0.96 -0.75,1.573 10e-4,0.603 0.327,1.158 0.853,1.452 a 8.76,8.76 0 0 0 2.876,0.956 23.54,23.54 0 0 1 3.41,0.908 c 2.86,1.05 4.29,2.867 4.29,5.452 a 5.288,5.288 0 0 1 -2.38,4.487 10.264,10.264 0 0 1 -6.145,1.715 c -1.556,0.029 -3.1,-0.281 -4.524,-0.91 a 7.586,7.586 0 0 1 -3.1,-2.49 5.853,5.853 0 0 1 -1.094,-2.824 0.533,0.533 0 0 1 0.523,-0.596 h 4.11 a 0.513,0.513 0 0 1 0.513,0.418 c 0.091,0.71 0.46,1.354 1.024,1.793 a 4.233,4.233 0 0 0 2.66,0.768 c 0.827,0.057 1.65,-0.15 2.352,-0.59 0.508,-0.35 0.807,-0.93 0.796,-1.546 z m 26.756,-4.346 a 12.159,12.159 0 0 1 -2.127,7.503 6.817,6.817 0 0 1 -5.742,2.82 6.315,6.315 0 0 1 -4.965,-2.136 v 9.03 c 0,0.29 -0.235,0.525 -0.525,0.525 h -4.364 a 0.525,0.525 0 0 1 -0.525,-0.525 V 23.557 a 0.525,0.525 0 0 1 0.525,-0.525 h 4.018 c 0.27,0 0.497,0.206 0.523,0.475 l 0.142,1.51 a 6.363,6.363 0 0 1 5.134,-2.36 6.865,6.865 0 0 1 5.826,2.773 c 1.387,1.848 2.08,4.396 2.08,7.644 v 0.28 z m -5.415,-0.394 a 7.982,7.982 0 0 0 -1.002,-4.365 3.266,3.266 0 0 0 -2.913,-1.536 3.546,3.546 0 0 0 -3.504,1.948 v 8.3 a 3.605,3.605 0 0 0 3.541,2.004 c 2.586,0 3.878,-2.117 3.878,-6.35 z m 26.855,0.394 c 0,3.247 -0.694,5.78 -2.08,7.597 a 6.889,6.889 0 0 1 -5.808,2.726 6.329,6.329 0 0 1 -5.264,-2.53 l -0.191,1.689 a 0.525,0.525 0 0 1 -0.522,0.466 h -3.877 a 0.525,0.525 0 0 1 -0.525,-0.525 V 15.05 c 0,-0.29 0.235,-0.525 0.525,-0.525 h 4.364 a 0.525,0.525 0 0 1 0.525,0.525 v 9.798 a 6.166,6.166 0 0 1 4.928,-2.192 6.945,6.945 0 0 1 5.817,2.726 c 1.405,1.817 2.108,4.374 2.108,7.672 v 0.3 z m -5.415,-0.394 a 8.068,8.068 0 0 0 -0.974,-4.487 3.295,3.295 0 0 0 -2.904,-1.414 3.572,3.572 0 0 0 -3.56,2.117 v 8 a 3.62,3.62 0 0 0 3.597,2.135 c 1.626,0.093 3.081,-0.999 3.448,-2.585 0.31,-1.23 0.442,-2.498 0.393,-3.766 z m 17.811,10.717 a 9.95,9.95 0 0 1 -7.26,-2.736 9.722,9.722 0 0 1 -2.8,-7.288 V 33.13 a 12.247,12.247 0 0 1 1.18,-5.461 8.666,8.666 0 0 1 3.344,-3.71 9.387,9.387 0 0 1 4.936,-1.302 8.413,8.413 0 0 1 6.548,2.623 c 1.593,1.749 2.39,4.228 2.39,7.438 v 1.685 a 0.525,0.525 0 0 1 -0.526,0.525 h -12.383 a 5.028,5.028 0 0 0 1.583,3.185 4.785,4.785 0 0 0 3.344,1.2 5.886,5.886 0 0 0 4.524,-1.837 0.527,0.527 0 0 1 0.773,0.026 l 1.964,2.198 c 0.17,0.188 0.182,0.47 0.028,0.672 a 8.216,8.216 0 0 1 -3.036,2.34 10.82,10.82 0 0 1 -4.609,0.966 z m -0.618,-16.656 a 3.382,3.382 0 0 0 -2.614,1.092 5.65,5.65 0 0 0 -1.283,3.124 h 7.531 v -0.433 a 4.034,4.034 0 0 0 -0.974,-2.795 3.492,3.492 0 0 0 -2.66,-0.988 z m 23.396,0.503 a 0.523,0.523 0 0 1 -0.575,0.515 c -0.459,-0.051 -0.92,-0.078 -1.382,-0.081 -2.049,0 -3.391,0.693 -4.028,2.08 v 12.739 a 0.525,0.525 0 0 1 -0.525,0.525 h -4.364 a 0.525,0.525 0 0 1 -0.525,-0.525 V 23.557 a 0.525,0.525 0 0 1 0.525,-0.525 h 4.096 c 0.277,0 0.507,0.215 0.524,0.492 l 0.12,1.924 a 5.017,5.017 0 0 1 4.514,-2.791 c 0.434,-0.002 0.867,0.044 1.29,0.138 a 0.515,0.515 0 0 1 0.39,0.515 z m 13.684,0 a 0.523,0.523 0 0 1 -0.575,0.515 c -0.459,-0.051 -0.92,-0.078 -1.382,-0.081 -2.048,0 -3.39,0.693 -4.028,2.08 v 12.739 a 0.525,0.525 0 0 1 -0.525,0.525 h -4.364 a 0.525,0.525 0 0 1 -0.525,-0.525 V 23.557 a 0.525,0.525 0 0 1 0.525,-0.525 h 4.096 c 0.277,0 0.507,0.215 0.524,0.492 l 0.12,1.924 a 5.018,5.018 0 0 1 4.514,-2.791 c 0.434,-0.002 0.867,0.044 1.29,0.138 a 0.515,0.515 0 0 1 0.39,0.515 z m 10.917,8.115 3.635,-12.233 a 0.525,0.525 0 0 1 0.504,-0.375 h 4.677 a 0.525,0.525 0 0 1 0.496,0.697 l -7.907,22.721 -0.45,1.068 a 6.18,6.18 0 0 1 -5.995,3.972 8.368,8.368 0 0 1 -2.003,-0.25 0.529,0.529 0 0 1 -0.395,-0.513 v -3.15 a 0.525,0.525 0 0 1 0.546,-0.524 l 0.538,0.02 a 3.442,3.442 0 0 0 2.035,-0.492 3.08,3.08 0 0 0 1.19,-1.555 l 0.637,-1.667 -6.857,-19.63 a 0.525,0.525 0 0 1 0.496,-0.697 h 4.696 c 0.232,0 0.437,0.152 0.503,0.374 z m 27.222,-1.948 v 9.086 c 0,0.29 -0.235,0.525 -0.525,0.525 h -4.57 a 0.525,0.525 0 0 1 -0.526,-0.525 V 16.55 a 0.525,0.525 0 0 1 0.525,-0.525 h 10.117 a 12.31,12.31 0 0 1 5.405,1.124 8.284,8.284 0 0 1 3.587,3.194 8.91,8.91 0 0 1 1.256,4.712 7.833,7.833 0 0 1 -2.745,6.323 c -1.83,1.543 -4.362,2.314 -7.597,2.314 z m 0,-4.553 h 5.02 a 4.934,4.934 0 0 0 3.401,-1.049 3.816,3.816 0 0 0 1.171,-2.998 4.5,4.5 0 0 0 -1.18,-3.24 4.41,4.41 0 0 0 -3.26,-1.275 h -5.152 z m 17.925,-11.353 a 2.666,2.666 0 0 1 0.815,-2.005 3.512,3.512 0 0 1 4.431,0 2.86,2.86 0 0 1 -0.01,4.028 3.473,3.473 0 0 1 -4.402,0 2.66,2.66 0 0 1 -0.834,-2.023 z m 5.227,25.517 h -4.383 A 0.525,0.525 0 0 1 263.4,42.778 V 23.557 a 0.525,0.525 0 0 1 0.525,-0.525 h 4.383 a 0.525,0.525 0 0 1 0.525,0.525 v 19.22 a 0.525,0.525 0 0 1 -0.525,0.526 z M 45.008,32.949 a 8.74,8.74 0 0 0 -3.104,-6.182 7.664,7.664 0 0 0 -1.44,-2.801 8.594,8.594 0 0 0 -3.058,-5.777 c 0.284,-0.244 0.524,-0.536 0.708,-0.862 a 6.186,6.186 0 0 0 3.63,-4.23 5.558,5.558 0 0 0 1.755,-3.64 3.481,3.481 0 0 0 -0.31,-1.638 3.114,3.114 0 0 0 0.81,-3.215 C 43.393,2.848 41.269,1.708 38.415,1.587 A 4.497,4.497 0 0 0 35.305,0.522 7.188,7.188 0 0 0 33.627,0.729 3.821,3.821 0 0 0 31.977,0.395 6.458,6.458 0 0 0 28.829,1.253 2.894,2.894 0 0 0 28.449,1.228 6.276,6.276 0 0 0 24.898,2.786 10.765,10.765 0 0 0 23.032,4.73 10.768,10.768 0 0 0 21.165,2.786 6.278,6.278 0 0 0 17.615,1.228 c -0.127,0 -0.254,0.008 -0.38,0.025 A 6.46,6.46 0 0 0 14.087,0.395 3.822,3.822 0 0 0 12.437,0.729 7.188,7.188 0 0 0 10.757,0.522 4.498,4.498 0 0 0 7.648,1.587 C 4.794,1.707 2.67,2.848 2.063,4.605 a 3.114,3.114 0 0 0 0.812,3.214 3.482,3.482 0 0 0 -0.31,1.639 5.557,5.557 0 0 0 1.755,3.64 6.186,6.186 0 0 0 3.63,4.229 c 0.183,0.326 0.423,0.618 0.707,0.862 a 8.594,8.594 0 0 0 -3.057,5.777 7.663,7.663 0 0 0 -1.44,2.801 8.74,8.74 0 0 0 -3.104,6.182 8.424,8.424 0 0 0 1.92,6.578 c 0.26,1.31 0.8,2.549 1.581,3.632 a 9.452,9.452 0 0 0 2.386,5.514 9.768,9.768 0 0 0 5.262,3.126 12.74,12.74 0 0 0 4.208,2.605 9.763,9.763 0 0 0 13.24,0 c 1.559,-0.585 2.988,-1.47 4.207,-2.605 a 9.768,9.768 0 0 0 5.262,-3.126 9.452,9.452 0 0 0 2.386,-5.514 9.311,9.311 0 0 0 1.582,-3.632 8.424,8.424 0 0 0 1.919,-6.578 z"
         fill="#000000"
         id="path12089" />
      <path
         d="m 28.366,4.192 a 0.225,0.225 0 0 1 0.286,0.24 C 28.58,5.104 28.987,5.019 29.084,4.9 a 3.526,3.526 0 0 1 3.188,-1.53 0.225,0.225 0 0 1 0.154,0.363 c -0.4,0.593 0.03,0.706 0.19,0.6 1.631,-1.02 3.187,-1.023 3.785,-0.594 a 0.225,0.225 0 0 1 0.013,0.349 C 35.81,4.602 36.148,4.858 36.362,4.78 a 5.802,5.802 0 0 1 4.74,0.607 0.227,0.227 0 0 1 0.006,0.343 4.493,4.493 0 0 0 -1.73,3.018 c -0.045,0.396 0.614,0.313 0.891,0.241 a 0.225,0.225 0 0 1 0.28,0.21 c 0.026,0.954 -0.876,2.002 -2.218,2.898 -0.18,0.12 -0.154,0.408 0.256,0.42 a 0.222,0.222 0 0 1 0.191,0.334 c -0.478,0.888 -1.13,1.724 -3.345,2.298 a 0.227,0.227 0 0 0 -0.032,0.429 0.217,0.217 0 0 1 0.071,0.384 c -2.207,1.896 -7.8,1.148 -8.51,-2.043 a 0.224,0.224 0 0 1 0.04,-0.182 21.262,21.262 0 0 1 9.276,-7.058 0.176,0.176 0 0 0 -0.087,-0.34 15.168,15.168 0 0 0 -10.074,6.074 0.227,0.227 0 0 1 -0.289,0.065 C 22.243,10.627 25.188,5.161 28.366,4.192 Z M 7.285,12.85 A 0.222,0.222 0 0 1 7.476,12.516 C 7.886,12.506 7.912,12.217 7.732,12.097 6.39,11.201 5.49,10.153 5.514,9.2 A 0.225,0.225 0 0 1 5.794,8.99 C 6.072,9.062 6.73,9.145 6.685,8.749 A 4.493,4.493 0 0 0 4.955,5.732 0.227,0.227 0 0 1 4.961,5.388 5.802,5.802 0 0 1 9.701,4.781 C 9.915,4.86 10.253,4.603 9.649,4.089 a 0.225,0.225 0 0 1 0.014,-0.35 c 0.597,-0.428 2.153,-0.426 3.785,0.594 0.159,0.107 0.589,-0.006 0.19,-0.599 A 0.225,0.225 0 0 1 13.791,3.371 3.526,3.526 0 0 1 16.98,4.9 c 0.096,0.12 0.503,0.204 0.432,-0.469 a 0.225,0.225 0 0 1 0.286,-0.239 c 3.178,0.97 6.122,6.435 2.537,8.286 A 0.227,0.227 0 0 1 19.946,12.413 15.168,15.168 0 0 0 9.873,6.34 0.176,0.176 0 0 0 9.785,6.68 a 21.262,21.262 0 0 1 9.276,7.057 c 0.04,0.052 0.054,0.119 0.04,0.183 -0.71,3.19 -6.303,3.938 -8.51,2.042 a 0.217,0.217 0 0 1 0.071,-0.384 0.227,0.227 0 0 0 -0.031,-0.429 C 8.415,14.575 7.764,13.739 7.285,12.851 Z"
         fill="#46af4b"
         id="path12091" />
      <path
         d="m 37.158,22.605 c 0.92,2.446 0.203,3.622 -1.978,2.377 A 15.632,15.632 0 0 1 30.6,21.142 C 28.956,19.19 30.024,18.321 32.612,18.79 a 6.985,6.985 0 0 1 4.546,3.815 z m -9.783,-2.752 c 3.12,2.593 -0.454,4.428 -4.343,4.428 -3.89,0 -7.463,-1.835 -4.344,-4.428 a 6.935,6.935 0 0 1 8.687,0 z M 8.906,22.605 a 6.985,6.985 0 0 1 4.545,-3.815 c 2.588,-0.47 3.656,0.4 2.013,2.352 a 15.632,15.632 0 0 1 -4.58,3.84 C 8.702,26.227 7.986,25.051 8.906,22.605 Z M 4.394,36.196 a 6.983,6.983 0 0 1 0.518,-5.942 c 1.153,-1.96 2.313,-1.883 2.773,-0.222 0.585,2.29 0.373,4.712 -0.6,6.867 -0.854,1.696 -1.921,1.123 -2.691,-0.703 z m 8.31,12.7 A 6.942,6.942 0 0 1 7.482,42.7 c 0.433,-10.066 14.94,7.91 5.222,6.196 z m 0.295,-12.538 c -2.433,-1.404 -3.077,-4.844 -1.438,-7.682 1.639,-2.839 4.94,-4 7.372,-2.596 2.433,1.404 3.077,4.844 1.438,7.682 -1.639,2.839 -4.94,4 -7.372,2.596 z m 14.092,16.379 a 6.947,6.947 0 0 1 -8.119,0 c -2.41,-1.664 0.015,-3.58 4.06,-3.58 4.045,0 6.47,1.916 4.06,3.58 z"
         fill="#cd2355"
         id="path12093" />
      <ellipse
         fill="#cd2355"
         cx="23.032"
         cy="41.794998"
         rx="5.6469998"
         ry="4.8400002"
         id="ellipse12095" />
      <path
         d="m 25.692,33.762 c -1.639,-2.838 -0.995,-6.278 1.438,-7.682 2.433,-1.405 5.734,-0.243 7.372,2.596 1.64,2.838 0.995,6.278 -1.438,7.682 -2.432,1.405 -5.733,0.243 -7.372,-2.596 z M 33.36,48.896 C 23.64,50.61 38.149,32.634 38.58,42.7 a 6.941,6.941 0 0 1 -5.221,6.196 z m 8.31,-12.7 c -0.77,1.826 -1.838,2.399 -2.691,0.703 a 10.417,10.417 0 0 1 -0.6,-6.867 c 0.46,-1.66 1.62,-1.739 2.772,0.222 a 6.983,6.983 0 0 1 0.518,5.942 z"
         fill="#cd2355"
         id="path12097" />
    </g>
    <title
       id="title12250">Ubuntu</title>
    <g
       id="g18436"
       transform="matrix(2,0,0,2,-74.551216,-216.40658)">
      <rect
         style="fill:#dd4814;fill-opacity:1;stroke-width:18.5707;stroke-linejoin:round;stop-color:#000000"
         id="rect12298"
         width="35.597309"
         height="13.67255"
         x="71.895973"
         y="163.00362" />
      <g
         id="ubuntu-logo"
         transform="matrix(0.26458333,0,0,0.26458333,75.55722,166.40797)">
        <path
           d="m 100.47041,13.761545 c -3.531865,0 -6.395007,-2.863261 -6.395007,-6.3952726 0,-3.5320114 2.863142,-6.3952724 6.395007,-6.3952724 3.53186,0 6.39501,2.863261 6.39501,6.3952724 0,3.5320116 -2.86315,6.3952726 -6.39501,6.3952726 z M 96.479398,6.5982005 c -0.423471,0 -0.767041,0.3435848 -0.767041,0.7690707 0,0.4224895 0.34357,0.7670731 0.767041,0.7670731 0.424469,0 0.771036,-0.3445836 0.771036,-0.7670731 0,-0.4254859 -0.346567,-0.7690707 -0.771036,-0.7690707 z m 5.487142,3.4937785 c -0.36454,0.209746 -0.49139,0.681177 -0.28165,1.045736 0.21373,0.371551 0.68415,0.4964 1.04869,0.283658 0.36954,-0.209747 0.49638,-0.681177 0.28165,-1.048733 -0.21174,-0.369554 -0.68115,-0.4944029 -1.04869,-0.279662 z M 98.149311,7.3672712 c 0,-0.7590828 0.377528,-1.4322694 0.954806,-1.8377794 L 98.542819,4.5876299 c -0.674158,0.4494569 -1.174532,1.1366266 -1.382273,1.940655 0.245693,0.1997587 0.397504,0.4993966 0.397504,0.8389863 0,0.3365933 -0.151811,0.6392276 -0.397504,0.8369886 0.207741,0.8040285 0.709114,1.4901994 1.382273,1.9376582 L 99.104117,9.2030529 C 98.526839,8.7975429 98.149311,8.1243564 98.149311,7.3672712 Z m 2.243199,-2.2472846 c 1.17553,0 2.13733,0.9009114 2.2372,2.0495235 l 1.09663,-0.019976 c -0.0549,-0.8439802 -0.42447,-1.608057 -0.99276,-2.1623871 -0.29463,0.1078696 -0.63321,0.092888 -0.92384,-0.077906 -0.29164,-0.1677973 -0.47241,-0.4514545 -0.52335,-0.7590828 -0.28464,-0.077906 -0.58327,-0.1198552 -0.89388,-0.1198552 -0.529342,0 -1.030715,0.1238504 -1.478156,0.3435849 l 0.534332,0.9568438 c 0.286642,-0.1348371 0.609234,-0.2097466 0.943824,-0.2097466 z m 0,4.4915727 c -0.33558,0 -0.657182,-0.075908 -0.943824,-0.2097465 l -0.534332,0.9568442 c 0.446442,0.219734 0.948814,0.343584 1.478156,0.343584 0.31161,0 0.60924,-0.03995 0.89388,-0.119855 0.0499,-0.309626 0.23171,-0.5942817 0.52335,-0.7610801 0.29363,-0.1677973 0.62921,-0.1857755 0.92384,-0.072912 0.56929,-0.5623205 0.93683,-1.3224021 0.99276,-2.1673811 l -1.09663,-0.015981 c -0.0999,1.1456157 -1.06167,2.0455283 -2.2372,2.0455283 z m 1.57403,-4.9699946 c 0.36754,0.212743 0.83695,0.087894 1.04869,-0.2816596 0.21473,-0.3665571 0.0879,-0.8389862 -0.27965,-1.0507304 -0.36554,-0.2097465 -0.83596,-0.084897 -1.04869,0.2826585 -0.21274,0.366557 -0.0859,0.8369886 0.27965,1.0487327 z M 12.791011,24.148993 c -0.649189,0.161805 -1.508115,0.336593 -2.573783,0.517375 -1.0666665,0.183778 -2.3011234,0.275667 -3.6993755,0.275667 -1.2204744,0 -2.2441947,-0.177785 -3.0781522,-0.533355 C 2.6077403,24.054108 1.9385767,23.551715 1.4322097,22.900502 0.92284642,22.251286 0.55830211,21.484213 0.33558052,20.603278 0.10986267,19.715351 0,18.738531 0,17.659834 V 8.7685779 h 2.8314606 v 8.2829911 c 0,1.930667 0.3036205,3.311998 0.9148564,4.142994 0.6092384,0.832994 1.6349562,1.248492 3.0761547,1.248492 0.3036205,0 0.619226,-0.01 0.9438202,-0.03196 0.325593,-0.01998 0.631211,-0.04495 0.9128589,-0.07491 0.2836455,-0.02996 0.5433208,-0.05993 0.7770287,-0.08989 0.2337079,-0.03196 0.3995006,-0.06492 0.5033708,-0.107869 V 8.7685779 H 12.791011 V 24.149992 Z M 19.70337,9.4677331 c 0.346567,-0.2217321 0.868914,-0.4574472 1.570038,-0.6991552 0.699126,-0.2427067 1.505118,-0.366557 2.420973,-0.366557 1.135581,0 2.145319,0.2057513 3.029214,0.6092638 0.884894,0.40551 1.629962,0.9758208 2.240199,1.7079363 0.606243,0.729119 1.068665,1.602064 1.383271,2.616838 0.316604,1.015772 0.473408,2.133422 0.473408,3.35195 0,1.278455 -0.187765,2.430063 -0.565293,3.455824 -0.376529,1.024762 -0.908864,1.892713 -1.598002,2.602855 -0.691136,0.713138 -1.522098,1.258479 -2.498877,1.645012 -0.971785,0.386533 -2.067415,0.5793 -3.288888,0.5793 -1.32035,0 -2.486892,-0.09289 -3.502622,-0.275667 -1.014732,-0.182779 -1.84769,-0.366557 -2.496879,-0.549336 V 1.4594098 l 2.83246,-0.48741101 V 9.4677331 h -0.002 z m 1.204495,12.8984139 c 0.516354,0.07291 1.158551,0.106871 1.932584,0.106871 1.5201,0 2.741573,-0.50439 3.653433,-1.508177 0.913858,-1.005785 1.371286,-2.432062 1.371286,-4.27883 0,-0.812019 -0.0799,-1.573099 -0.243696,-2.285239 -0.162796,-0.71114 -0.427465,-1.324399 -0.79201,-1.842773 -0.365543,-0.519372 -0.838951,-0.921886 -1.414232,-1.218528 -0.581273,-0.295642 -1.276404,-0.442465 -2.087391,-0.442465 -0.773033,0 -1.482147,0.13284 -2.132334,0.394523 -0.649189,0.266678 -1.148564,0.539349 -1.493133,0.824005 v 10.019892 c 0.285642,0.0849 0.686142,0.160806 1.205493,0.230721 z m 25.717852,1.782846 c -0.649189,0.161805 -1.508115,0.336593 -2.572784,0.517375 -1.065668,0.183778 -2.300125,0.275667 -3.702372,0.275667 -1.21648,0 -2.242197,-0.177785 -3.074158,-0.533355 -0.83196,-0.354572 -1.502122,-0.856965 -2.00749,-1.508178 -0.511361,-0.649216 -0.874906,-1.416289 -1.098627,-2.297224 -0.222721,-0.88593 -0.333583,-1.863748 -0.333583,-2.941446 V 8.7705755 h 2.831461 v 8.2829915 c 0,1.930667 0.30362,3.311998 0.912859,4.142994 0.609238,0.832993 1.633957,1.248491 3.076154,1.248491 0.30462,0 0.621224,-0.01 0.945818,-0.03196 0.324594,-0.01998 0.629213,-0.04495 0.913858,-0.07491 0.282646,-0.02996 0.542322,-0.05993 0.777028,-0.08989 0.231711,-0.03296 0.399501,-0.06592 0.502372,-0.109867 V 8.7705755 h 2.83246 V 24.15199 h -0.002 z M 50.706615,9.2260252 c 0.649189,-0.1638021 1.511111,-0.3345957 2.588764,-0.5193724 1.075656,-0.1797828 2.313109,-0.2726706 3.715356,-0.2726706 1.260424,0 2.30412,0.1777852 3.13608,0.5323568 0.833957,0.3555703 1.498127,0.8519705 1.995505,1.492197 0.497379,0.639227 0.848939,1.406301 1.051686,2.297224 0.201747,0.896916 0.30362,1.879729 0.30362,2.956428 v 8.893254 h -2.833458 v -8.283991 c 0,-0.97582 -0.06592,-1.807815 -0.196754,-2.496982 -0.131835,-0.693163 -0.349563,-1.248492 -0.655181,-1.674976 -0.302622,-0.429481 -0.711111,-0.73711 -1.218477,-0.928878 -0.506367,-0.196762 -1.138577,-0.291647 -1.88764,-0.291647 -0.30462,0 -0.619226,0.01298 -0.941823,0.03296 -0.325593,0.01998 -0.636205,0.04594 -0.928839,0.07591 -0.299625,0.02996 -0.559301,0.06592 -0.794007,0.105872 -0.235706,0.03995 -0.402497,0.07191 -0.503371,0.08989 V 24.604443 H 50.706615 Z M 70.044442,8.7685779 h 6.0005 v 2.3751301 h -6.0005 v 7.311166 c 0,0.789046 0.06192,1.44825 0.18477,1.962628 0.11985,0.519373 0.30362,0.92688 0.547315,1.220525 0.243696,0.291648 0.549314,0.499397 0.912859,0.624246 0.365543,0.121853 0.79201,0.18178 1.278402,0.18178 0.87191,0 1.562048,-0.09688 2.07241,-0.28965 0.506367,-0.193766 0.851935,-0.329601 1.033707,-0.412501 l 0.609239,2.3172 c -0.283646,0.141828 -0.787016,0.323609 -1.508115,0.54634 -0.719101,0.224728 -1.53608,0.337592 -2.449937,0.337592 -1.076655,0 -1.965544,-0.136835 -2.666667,-0.412502 C 69.359299,24.254865 68.796003,23.84536 68.370535,23.297023 67.943069,22.749684 67.643444,22.0745 67.471659,21.272469 67.297876,20.468441 67.211983,19.540562 67.211983,18.485836 V 4.3519147 l 2.830462,-0.4894086 v 4.9080694 h 0.002 z M 91.455678,24.148993 c -0.652185,0.161805 -1.508115,0.336593 -2.576779,0.517375 -1.064669,0.183778 -2.297129,0.275667 -3.695381,0.275667 -1.220474,0 -2.244195,-0.177785 -3.076155,-0.533355 -0.835955,-0.354572 -1.505118,-0.856965 -2.011485,-1.508178 -0.509363,-0.649216 -0.87191,-1.416289 -1.098627,-2.297224 -0.219725,-0.88593 -0.334582,-1.863748 -0.334582,-2.941446 V 8.7705755 h 2.836455 v 8.2829915 c 0,1.930667 0.30362,3.311998 0.91186,4.142994 0.609238,0.832993 1.634956,1.248491 3.076155,1.248491 0.304619,0 0.619226,-0.01 0.944819,-0.03196 0.321598,-0.01998 0.627215,-0.04495 0.91186,-0.07491 0.283645,-0.02996 0.545318,-0.05993 0.77603,-0.08989 0.233707,-0.03296 0.402497,-0.06592 0.504369,-0.109867 V 8.7705755 h 2.833458 V 24.15199 h -0.002 z"
           fill="#ffffff"
           fill-rule="nonzero"
           id="path12252" />
      </g>
    </g>
  </g>
</svg>
