<svg
   xmlns="http://www.w3.org/2000/svg"
   viewBox="0 -15 110 24" height="2em"> <path
     id="path304"
     style="font-style:normal;font-weight:normal;font-size:10.58333302px;line-height:1.25;font-family:sans-serif;letter-spacing:0px;word-spacing:0px;fill:#000000;fill-opacity:1;stroke:none;stroke-width:0.26458332"
     d="M 5.1624754,-5.5655516 V -4.676717 Q 4.7593993,-4.8989256 4.3511555,-5.0074461 3.9480793,-5.1211343 3.5346679,-5.1211343 q -0.9250081,0 -1.4366048,0.5891113 -0.5115967,0.5839437 -0.5115967,1.6433105 0,1.0593669 0.5115967,1.6484782 0.5115967,0.58394363 1.4366048,0.58394363 0.4134114,0 0.8164876,-0.1085205 0.4082438,-0.11368815 0.8113199,-0.33589683 v 0.87849935 Q 4.7645669,-0.0361735 4.3356525,0.05684407 3.9119058,0.14986165 3.431315,0.14986165 q -1.3074137,0 -2.0773925,-0.82165525 -0.76997883,-0.8216552 -0.76997883,-2.2169189 0,-1.4159342 0.77514643,-2.2272541 0.7803141,-0.81132 2.1342366,-0.81132 0.4392497,0 0.8578288,0.093018 0.4185791,0.08785 0.8113199,0.268717 z" />
  <path
     id="path306"
     style="font-style:normal;font-weight:normal;font-size:10.58333302px;line-height:1.25;font-family:sans-serif;letter-spacing:0px;word-spacing:0px;fill:#000000;fill-opacity:1;stroke:none;stroke-width:0.26458332"
     d="m 9.0588783,-5.1211343 q -0.7648112,0 -1.2092285,0.5994466 -0.4444173,0.594279 -0.4444173,1.6329752 0,1.0386963 0.4392497,1.6381429 0.4444173,0.59427893 1.2143961,0.59427893 0.7596436,0 1.2040607,-0.59944663 0.444417,-0.5994466 0.444417,-1.6329752 0,-1.028361 -0.444417,-1.6278075 -0.4444171,-0.6046143 -1.2040607,-0.6046143 z m 0,-0.8061523 q 1.2402347,0 1.9482017,0.8061523 0.707967,0.8061523 0.707967,2.2324218 0,1.4211019 -0.707967,2.23242183 -0.707967,0.80615232 -1.9482017,0.80615232 -1.245402,0 -1.9533691,-0.80615232 -0.7027994,-0.81131993 -0.7027994,-2.23242183 0,-1.4262695 0.7027994,-2.2324218 0.7079671,-0.8061523 1.9533691,-0.8061523 z" />
  <path
     id="path308"
     style="font-style:normal;font-weight:normal;font-size:10.58333302px;line-height:1.25;font-family:sans-serif;letter-spacing:0px;word-spacing:0px;fill:#000000;fill-opacity:1;stroke:none;stroke-width:0.26458332"
     d="M 18.102254,-3.4933267 V 0 h -0.950846 v -3.4623209 q 0,-0.8216552 -0.320394,-1.229899 -0.320394,-0.4082438 -0.961182,-0.4082438 -0.769979,0 -1.214396,0.4909261 -0.444417,0.4909261 -0.444417,1.3384195 V 0 h -0.956014 v -5.7877602 h 0.956014 v 0.8991699 q 0.341064,-0.521932 0.800984,-0.7803142 0.465088,-0.2583821 1.069703,-0.2583821 0.997355,0 1.508951,0.6201172 0.511597,0.6149495 0.511597,1.8138427 z" />
  <path
     id="path310"
     style="font-style:normal;font-weight:normal;font-size:10.58333302px;line-height:1.25;font-family:sans-serif;letter-spacing:0px;word-spacing:0px;fill:#000000;fill-opacity:1;stroke:none;stroke-width:0.26458332"
     d="m 20.939289,-7.4310707 v 1.6433105 h 1.958537 v 0.7389729 h -1.958537 v 3.141927 q 0,0.7079671 0.191203,0.90950519 0.19637,0.20153808 0.790649,0.20153808 h 0.976685 V 0 h -0.976685 q -1.100708,0 -1.519287,-0.4082438 -0.418579,-0.41341145 -0.418579,-1.4986165 v -3.141927 h -0.697632 v -0.7389729 h 0.697632 v -1.6433105 z" />
  <path
     id="path312"
     style="font-style:normal;font-weight:normal;font-size:10.58333302px;line-height:1.25;font-family:sans-serif;letter-spacing:0px;word-spacing:0px;fill:#000000;fill-opacity:1;stroke:none;stroke-width:0.26458332"
     d="m 26.778726,-2.9093831 q -1.152384,0 -1.596801,0.2635498 -0.444418,0.2635498 -0.444418,0.8991699 0,0.5064291 0.33073,0.80615236 0.335896,0.29455566 0.909505,0.29455566 0.790649,0 1.266072,-0.55810542 0.480591,-0.5632731 0.480591,-1.4934489 v -0.2118734 z m 1.896525,-0.3927408 V 0 h -0.950846 v -0.87849932 q -0.325561,0.52709959 -0.81132,0.7803141 -0.485758,0.24804687 -1.188558,0.24804687 -0.888834,0 -1.415934,-0.49609374 -0.521932,-0.50126137 -0.521932,-1.33841951 0,-0.9766846 0.651123,-1.4727783 0.656291,-0.4960938 1.953369,-0.4960938 h 1.333252 v -0.093017 q 0,-0.6562907 -0.434082,-1.0128581 -0.428914,-0.361735 -1.209228,-0.361735 -0.496094,0 -0.96635,0.1188558 -0.470255,0.1188558 -0.904337,0.3565674 v -0.8784993 q 0.521932,-0.2015381 1.012858,-0.2997233 0.490926,-0.1033529 0.956014,-0.1033529 1.255737,0 1.875854,0.651123 0.620117,0.651123 0.620117,1.9740392 z" />
  <path
     id="path314"
     style="font-style:normal;font-weight:normal;font-size:10.58333302px;line-height:1.25;font-family:sans-serif;letter-spacing:0px;word-spacing:0px;fill:#000000;fill-opacity:1;stroke:none;stroke-width:0.26458332"
     d="m 34.798908,-5.5655516 v 0.8888346 q -0.403076,-0.2222086 -0.81132,-0.3307291 -0.403076,-0.1136882 -0.816487,-0.1136882 -0.925009,0 -1.436605,0.5891113 -0.511597,0.5839437 -0.511597,1.6433105 0,1.0593669 0.511597,1.6484782 0.511596,0.58394363 1.436605,0.58394363 0.413411,0 0.816487,-0.1085205 0.408244,-0.11368815 0.81132,-0.33589683 v 0.87849935 Q 34.401,-0.0361735 33.972085,0.05684407 q -0.423747,0.09301758 -0.904337,0.09301758 -1.307414,0 -2.077393,-0.82165525 -0.769979,-0.8216552 -0.769979,-2.2169189 0,-1.4159342 0.775147,-2.2272541 0.780314,-0.81132 2.134236,-0.81132 0.43925,0 0.857829,0.093018 0.418579,0.08785 0.81132,0.268717 z" />
  <path
     id="path316"
     style="font-style:normal;font-weight:normal;font-size:10.58333302px;line-height:1.25;font-family:sans-serif;letter-spacing:0px;word-spacing:0px;fill:#000000;fill-opacity:1;stroke:none;stroke-width:0.26458332"
     d="m 37.393066,-7.4310707 v 1.6433105 h 1.958537 v 0.7389729 h -1.958537 v 3.141927 q 0,0.7079671 0.191203,0.90950519 0.196371,0.20153808 0.79065,0.20153808 h 0.976684 V 0 h -0.976684 q -1.100708,0 -1.519288,-0.4082438 -0.418579,-0.41341145 -0.418579,-1.4986165 v -3.141927 h -0.697631 v -0.7389729 h 0.697631 v -1.6433105 z" />
  <path
     id="path318"
     style="font-style:normal;font-weight:normal;font-size:10.58333302px;line-height:1.25;font-family:sans-serif;letter-spacing:0px;word-spacing:0px;fill:#000000;fill-opacity:1;stroke:none;stroke-width:0.26458332"
     d="m 43.54256,-2.7750243 q 0,0.7389729 0.366903,1.1627197 0.366903,0.418579 1.007691,0.418579 0.63562,0 0.997355,-0.4237467 0.366902,-0.4237467 0.366902,-1.157552 0,-0.7234701 -0.37207,-1.1472168 -0.37207,-0.4289144 -1.002523,-0.4289144 -0.625285,0 -0.997355,0.4237468 -0.366903,0.4237467 -0.366903,1.1523844 z m 2.816366,1.5451252 q -0.310059,0.39790857 -0.713135,0.58911136 -0.397908,0.18603515 -0.930176,0.18603515 -0.888834,0 -1.44694,-0.64078771 -0.552937,-0.6459554 -0.552937,-1.679484 0,-1.0335286 0.558105,-1.679484 0.558105,-0.6459554 1.441772,-0.6459554 0.532268,0 0.935344,0.1963704 0.403076,0.1912028 0.707967,0.5839437 v -0.6769613 h 0.738973 v 3.8033853 q 0.754476,-0.1136881 1.178223,-0.6872965 0.428914,-0.578776 0.428914,-1.4934488 0,-0.5529378 -0.165365,-1.0386963 -0.160197,-0.4857584 -0.490926,-0.8991699 -0.537435,-0.6769612 -1.312581,-1.0335286 -0.769979,-0.361735 -1.679484,-0.361735 -0.63562,0 -1.219564,0.1705322 -0.583944,0.1653646 -1.080037,0.4960937 -0.81132,0.5270996 -1.27124,1.3849284 -0.454753,0.8526611 -0.454753,1.8500162 0,0.8216553 0.294556,1.5399576 Q 41.625365,-0.54777017 42.188638,0 42.73124,0.53743488 43.444375,0.81648761 44.15751,1.100708 44.96883,1.100708 q 0.666626,0 1.307414,-0.22737632 0.645955,-0.22220865 1.18339,-0.64078774 l 0.465088,0.57360838 Q 47.278766,1.3074137 46.513955,1.5709635 45.754312,1.8396809 44.96883,1.8396809 q -0.956014,0 -1.803507,-0.3410644 Q 42.317829,1.1627197 41.656371,0.51676431 40.994912,-0.12919108 40.64868,-0.97668454 40.302448,-1.8293456 40.302448,-2.8060302 q 0,-0.940511 0.3514,-1.7931721 0.3514,-0.8526611 1.002523,-1.4986165 0.666626,-0.6562907 1.539957,-1.0025228 0.873332,-0.3513997 1.850017,-0.3513997 1.09554,0 2.030883,0.4495849 0.940511,0.449585 1.576131,1.2764079 0.387574,0.506429 0.589112,1.1007079 0.206705,0.594279 0.206705,1.2298991 0,1.3590901 -0.821655,2.1445719 -0.821655,0.78548172 -2.268595,0.81648758 z" />
  <path
     id="path320"
     style="font-style:normal;font-weight:normal;font-size:10.58333302px;line-height:1.25;font-family:sans-serif;letter-spacing:0px;word-spacing:0px;fill:#000000;fill-opacity:1;stroke:none;stroke-width:0.26458332"
     d="m 55.340289,-2.8887125 q 0,-1.0490315 -0.434082,-1.6433105 -0.428915,-0.5994466 -1.183391,-0.5994466 -0.754476,0 -1.188558,0.5994466 -0.428914,0.594279 -0.428914,1.6433105 0,1.0490316 0.428914,1.6484782 0.434082,0.59427892 1.188558,0.59427892 0.754476,0 1.183391,-0.59427892 0.434082,-0.5994466 0.434082,-1.6484782 z m -3.234945,-2.0205484 q 0.299723,-0.5167643 0.754476,-0.7648112 0.45992,-0.2532145 1.09554,-0.2532145 1.054199,0 1.71049,0.8371582 0.661458,0.8371582 0.661458,2.2014159 0,1.3642578 -0.661458,2.20141597 -0.656291,0.83715818 -1.71049,0.83715818 -0.63562,0 -1.09554,-0.24804687 -0.454753,-0.25321451 -0.754476,-0.76997882 V 0 H 51.14933 v -8.0408526 h 0.956014 z" />
  <path
     id="path322"
     style="font-style:normal;font-weight:normal;font-size:10.58333302px;line-height:1.25;font-family:sans-serif;letter-spacing:0px;word-spacing:0px;fill:#000000;fill-opacity:1;stroke:none;stroke-width:0.26458332"
     d="m 62.854043,-3.1315917 v 0.4650879 h -4.371826 q 0.06201,0.9818522 0.589111,1.4986165 0.532268,0.51159663 1.477946,0.51159663 0.547771,0 1.059367,-0.13435872 0.516764,-0.13435872 1.023193,-0.40307621 v 0.89916994 q -0.511596,0.21704101 -1.049031,0.33072916 -0.537435,0.11368815 -1.090373,0.11368815 -1.384928,0 -2.196248,-0.80615232 Q 57.49003,-1.462443 57.49003,-2.837036 q 0,-1.4211019 0.764811,-2.2530924 0.769979,-0.8371582 2.072225,-0.8371582 1.167887,0 1.844848,0.7544759 0.682129,0.7493082 0.682129,2.041219 z m -0.950846,-0.2790527 q -0.01033,-0.7803141 -0.43925,-1.245402 -0.423747,-0.4650879 -1.126546,-0.4650879 -0.795817,0 -1.276408,0.449585 -0.475423,0.4495849 -0.54777,1.2660725 z" />
  <path
     id="path324"
     style="font-style:normal;font-weight:normal;font-size:10.58333302px;line-height:1.25;font-family:sans-serif;letter-spacing:0px;word-spacing:0px;fill:#000000;fill-opacity:1;stroke:none;stroke-width:0.26458332"
     d="m 67.768472,-4.8989256 q -0.160197,-0.093018 -0.3514,-0.1343588 -0.186035,-0.046509 -0.413411,-0.046509 -0.806153,0 -1.240235,0.5270996 -0.428914,0.5219319 -0.428914,1.5037841 V 0 h -0.956014 v -5.7877602 h 0.956014 v 0.8991699 q 0.299723,-0.5270996 0.780314,-0.7803142 0.480591,-0.2583821 1.167887,-0.2583821 0.09819,0 0.217041,0.015503 0.118856,0.010335 0.26355,0.036174 z" />
  <path
     id="path326"
     style="font-style:normal;font-weight:normal;font-size:10.58333302px;line-height:1.25;font-family:sans-serif;letter-spacing:0px;word-spacing:0px;fill:#000000;fill-opacity:1;stroke:none;stroke-width:0.26458332"
     d="m 73.483884,-3.1315917 v 0.4650879 h -4.371826 q 0.06201,0.9818522 0.589111,1.4986165 0.532268,0.51159663 1.477946,0.51159663 0.54777,0 1.059367,-0.13435872 0.516764,-0.13435872 1.023193,-0.40307621 v 0.89916994 q -0.511596,0.21704101 -1.049031,0.33072916 -0.537435,0.11368815 -1.090373,0.11368815 -1.384928,0 -2.196248,-0.80615232 Q 68.11987,-1.462443 68.11987,-2.837036 q 0,-1.4211019 0.764812,-2.2530924 0.769978,-0.8371582 2.072225,-0.8371582 1.167887,0 1.844848,0.7544759 0.682129,0.7493082 0.682129,2.041219 z m -0.950846,-0.2790527 q -0.01034,-0.7803141 -0.43925,-1.245402 -0.423747,-0.4650879 -1.126546,-0.4650879 -0.795817,0 -1.276408,0.449585 -0.475423,0.4495849 -0.54777,1.2660725 z" />
  <path
     id="path328"
     style="font-style:normal;font-weight:normal;font-size:10.58333302px;line-height:1.25;font-family:sans-serif;letter-spacing:0px;word-spacing:0px;fill:#000000;fill-opacity:1;stroke:none;stroke-width:0.26458332"
     d="m 79.550697,-4.676717 q 0.356568,-0.6407877 0.852661,-0.9456787 0.496094,-0.3048909 1.167888,-0.3048909 0.904337,0 1.395263,0.6356201 0.490926,0.6304524 0.490926,1.7983398 V 0 h -0.956014 v -3.4623209 q 0,-0.8319905 -0.294555,-1.2350667 -0.294556,-0.4030761 -0.89917,-0.4030761 -0.738973,0 -1.167888,0.4909261 -0.428914,0.4909261 -0.428914,1.3384195 V 0 H 78.75488 v -3.4623209 q 0,-0.8371581 -0.294556,-1.2350667 -0.294555,-0.4030761 -0.909505,-0.4030761 -0.728637,0 -1.157552,0.4960937 -0.428914,0.4909261 -0.428914,1.3332519 V 0 h -0.956014 v -5.7877602 h 0.956014 v 0.8991699 q 0.325561,-0.5322673 0.780314,-0.7854818 0.454753,-0.2532145 1.080037,-0.2532145 0.630453,0 1.069702,0.3203939 0.444418,0.3203938 0.656291,0.9301757 z" />
  <path
     id="path330"
     style="font-style:normal;font-weight:normal;font-size:10.58333302px;line-height:1.25;font-family:sans-serif;letter-spacing:0px;word-spacing:0px;fill:#000000;fill-opacity:1;stroke:none;stroke-width:0.26458332"
     d="m 85.353961,-5.7877602 h 0.950846 V 0 h -0.950846 z m 0,-2.2530924 h 0.950846 v 1.2040608 h -0.950846 z" />
  <path
     id="path332"
     style="font-style:normal;font-weight:normal;font-size:10.58333302px;line-height:1.25;font-family:sans-serif;letter-spacing:0px;word-spacing:0px;fill:#000000;fill-opacity:1;stroke:none;stroke-width:0.26458332"
     d="m 87.880941,-5.7877602 h 4.51652 v 0.868164 l -3.576009,4.15995267 h 3.576009 V 0 H 87.75175 v -0.86816404 l 3.576009,-4.15995266 h -3.446818 z" />
  <path
     id="path334"
     style="font-style:normal;font-weight:normal;font-size:10.58333302px;line-height:1.25;font-family:sans-serif;letter-spacing:0px;word-spacing:0px;fill:#000000;fill-opacity:1;stroke:none;stroke-width:0.26458332"
     d="m 93.983925,-1.3125813 h 1.090373 V 0 h -1.090373 z" />
  <path
     id="path336"
     style="font-style:normal;font-weight:normal;font-size:10.58333302px;line-height:1.25;font-family:sans-serif;letter-spacing:0px;word-spacing:0px;fill:#000000;fill-opacity:1;stroke:none;stroke-width:0.26458332"
     d="m 100.14376,-8.0408526 v 0.7906494 h -0.90951 q -0.511596,0 -0.713134,0.2067057 -0.196371,0.2067057 -0.196371,0.7441406 v 0.5115967 h 1.565796 v 0.7389729 H 98.324745 V 0 h -0.956014 v -5.0487873 h -0.909505 v -0.7389729 h 0.909505 v -0.4030762 q 0,-0.9663493 0.449585,-1.4055989 0.449585,-0.4444173 1.42627,-0.4444173 z" />
  <path
     id="path338"
     style="font-style:normal;font-weight:normal;font-size:10.58333302px;line-height:1.25;font-family:sans-serif;letter-spacing:0px;word-spacing:0px;fill:#000000;fill-opacity:1;stroke:none;stroke-width:0.26458332"
     d="m 104.29337,-4.8989256 q -0.1602,-0.093018 -0.3514,-0.1343588 -0.18603,-0.046509 -0.41341,-0.046509 -0.80615,0 -1.24024,0.5270996 -0.42891,0.5219319 -0.42891,1.5037841 V 0 h -0.95601 v -5.7877602 h 0.95601 v 0.8991699 q 0.29972,-0.5270996 0.78031,-0.7803142 0.4806,-0.2583821 1.16789,-0.2583821 0.0982,0 0.21704,0.015503 0.11886,0.010335 0.26355,0.036174 z" />
</svg>
