<?xml version="1.0" encoding="UTF-8" standalone="no"?>
<svg
   xmlns:dc="http://purl.org/dc/elements/1.1/"
   xmlns:cc="http://creativecommons.org/ns#"
   xmlns:rdf="http://www.w3.org/1999/02/22-rdf-syntax-ns#"
   xmlns:svg="http://www.w3.org/2000/svg"
   xmlns="http://www.w3.org/2000/svg"
   xmlns:sodipodi="http://sodipodi.sourceforge.net/DTD/sodipodi-0.dtd"
   xmlns:inkscape="http://www.inkscape.org/namespaces/inkscape"
   version="1.1"
   width="1000"
   height="1000"
   id="svg17"
   sodipodi:docname="favicon.svg"
   inkscape:export-filename="/home/ed/src/beremiz.github.io/assets/img/favicon.png"
   inkscape:export-xdpi="4.6100001"
   inkscape:export-ydpi="4.6100001"
   inkscape:version="0.92.5 (2060ec1f9f, 2020-04-08)">
  <metadata
     id="metadata23">
    <rdf:RDF>
      <cc:Work
         rdf:about="">
        <dc:format>image/svg+xml</dc:format>
        <dc:type
           rdf:resource="http://purl.org/dc/dcmitype/StillImage" />
      </cc:Work>
    </rdf:RDF>
  </metadata>
  <defs
     id="defs21">
    <defs
       id="defs918" />
    <sodipodi:namedview
       inkscape:window-maximized="0"
       inkscape:window-y="27"
       inkscape:window-x="1920"
       inkscape:window-height="2096"
       inkscape:window-width="1920"
       fit-margin-bottom="2"
       fit-margin-right="2"
       fit-margin-left="2"
       fit-margin-top="2"
       units="px"
       showgrid="false"
       inkscape:current-layer="g995"
       inkscape:document-units="mm"
       inkscape:cy="39.631298"
       inkscape:cx="428.24698"
       inkscape:zoom="1.979899"
       inkscape:pageshadow="2"
       inkscape:pageopacity="0.0"
       borderopacity="1.0"
       bordercolor="#666666"
       pagecolor="#ffffff"
       id="base" />
  </defs>
  <sodipodi:namedview
     pagecolor="#ffffff"
     bordercolor="#666666"
     borderopacity="1"
     objecttolerance="10"
     gridtolerance="10"
     guidetolerance="10"
     inkscape:pageopacity="0"
     inkscape:pageshadow="2"
     inkscape:window-width="1920"
     inkscape:window-height="2096"
     id="namedview19"
     showgrid="false"
     inkscape:zoom="0.472"
     inkscape:cx="498.84117"
     inkscape:cy="1199.4435"
     inkscape:window-x="0"
     inkscape:window-y="27"
     inkscape:window-maximized="0"
     inkscape:current-layer="svg17" />
  <rect
     width="1000"
     height="1000"
     rx="200"
     ry="200"
     fill="#eeeeec"
     id="rect2" />
  <path
     style="opacity:1;vector-effect:none;fill:#9acd32;fill-opacity:1;stroke:none;stroke-width:5.32772112;stroke-linecap:butt;stroke-linejoin:miter;stroke-miterlimit:4;stroke-dasharray:none;stroke-dashoffset:0;stroke-opacity:1;marker:none"
     d="M 0 526.82227 L 0 721.9043 L 1000 721.9043 L 1000 526.82227 L 0 526.82227 z "
     id="rect482" />
  <path
     style="opacity:1;vector-effect:none;fill:#ff8c00;fill-opacity:1;stroke:none;stroke-width:5.32772112;stroke-linecap:butt;stroke-linejoin:miter;stroke-miterlimit:4;stroke-dasharray:none;stroke-dashoffset:0;stroke-opacity:1;marker:none"
     d="M 0 274.8418 L 0 458.54297 L 1000 458.54297 L 1000 274.8418 L 0 274.8418 z "
     id="rect480" />
  <g
     id="g145"
     transform="translate(9.7650495)">
    <path
       d="M 39.514141,458.54323 H 232.15795 c 81.28402,0 121.92641,-34.95199 121.92641,-96.72778 0,-16.79858 -2.98,-31.15863 -8.94153,-43.08092 -5.41468,-11.92152 -11.92152,-20.59193 -19.50822,-26.01046 -7.04293,-5.95999 -17.0697,-10.56746 -30.07493,-13.81858 -12.46376,-3.24881 -19.98287,-4.06293 -30.07492,-4.06293 H 235.40906 39.514141 V 206.56454 H 249.22765 c 37.93274,0 67.73655,2.97999 89.41295,8.94075 21.67564,5.41469 41.18387,16.79935 58.52468,34.1394 27.6364,26.55346 41.45498,61.50544 41.45498,104.85671 0,18.42452 -2.71118,35.22387 -8.12817,50.39651 -5.42236,14.63117 -11.38005,26.28234 -17.88305,34.95198 -6.5053,8.67041 -15.44376,16.79935 -26.82381,24.38528 -10.83782,7.04293 -18.96599,11.92229 -24.38528,14.63117 -5.42237,2.16588 -12.73488,4.87706 -21.94676,8.12894 10.29635,2.71119 18.96676,5.42237 26.01123,8.12817 7.04293,2.71119 16.79857,7.85783 29.26233,15.44376 13.00523,7.58824 23.30158,16.25711 30.88828,26.01122 8.12818,9.21265 15.17264,22.48899 21.1334,39.82904 6.50531,16.79935 9.75412,35.76534 9.75412,56.89951 0,57.44097 -23.57193,101.87595 -70.71732,133.3057 -12.46299,8.12893 -27.09416,14.36081 -43.89351,18.69563 -16.25711,4.33175 -30.07493,6.77412 -41.45498,7.31175 -10.83782,0.53763 -26.55269,0.81412 -47.14462,0.81412 l -213.777979,7.7e-4 V 721.90351 H 257.35582 c 33.59792,0 61.23432,-2.98 82.90996,-20.32005 21.6764,-17.88305 32.51422,-43.08092 32.51422,-75.59437 0,-29.80458 -10.02523,-54.18986 -30.07569,-73.15585 C 323.19608,533.86648 295.8308,526.82125 260.6077,526.82125 H 39.514141 Z"
       style="font-style:normal;font-variant:normal;font-weight:normal;font-stretch:normal;font-size:10.58333302px;line-height:1.25;font-family:'Univers LT Std';-inkscape-font-specification:'Univers LT Std, Normal';font-variant-ligatures:normal;font-variant-caps:normal;font-variant-numeric:normal;font-feature-settings:normal;text-align:start;letter-spacing:0px;word-spacing:0px;writing-mode:lr-tb;text-anchor:start;fill:#000000;fill-opacity:1;stroke:none;stroke-width:5.32772112"
       id="path415"
       inkscape:connector-curvature="0"
       sodipodi:nodetypes="csscccscccsccscccccccccsccccccscscscc" />
    <path
       inkscape:connector-curvature="0"
       id="path417"
       d="m 566.23593,206.56384 v 69.09388 h 368.21628 v -69.09388 z m 0,251.97415 v 0.0107 68.27183 195.08616 71.52884 0.0107 h 81.28935 v -0.0107 H 940.95576 V 721.90639 H 647.52528 V 526.82023 H 920.63343 V 458.5484 H 647.52528 v -0.0107 z"
       style="font-style:normal;font-variant:normal;font-weight:normal;font-stretch:normal;font-size:10.58333302px;line-height:1.25;font-family:'Univers LT Std';-inkscape-font-specification:'Univers LT Std, Normal';font-variant-ligatures:normal;font-variant-caps:normal;font-variant-numeric:normal;font-feature-settings:normal;text-align:start;letter-spacing:0px;word-spacing:0px;writing-mode:lr-tb;text-anchor:start;fill:#000000;fill-opacity:1;stroke:none;stroke-width:5.32772112" />
  </g>
</svg>
