<?xml version="1.0" encoding="UTF-8" standalone="no"?>
<svg
   xmlns:dc="http://purl.org/dc/elements/1.1/"
   xmlns:cc="http://creativecommons.org/ns#"
   xmlns:rdf="http://www.w3.org/1999/02/22-rdf-syntax-ns#"
   xmlns:svg="http://www.w3.org/2000/svg"
   xmlns="http://www.w3.org/2000/svg"
   xmlns:sodipodi="http://sodipodi.sourceforge.net/DTD/sodipodi-0.dtd"
   xmlns:inkscape="http://www.inkscape.org/namespaces/inkscape"
   version="1.1"
   width="1000"
   height="1000"
   id="svg17"
   sodipodi:docname="favicon.svg"
   inkscape:version="0.92.5 (2060ec1f9f, 2020-04-08)">
  <metadata
     id="metadata23">
    <rdf:RDF>
      <cc:Work
         rdf:about="">
        <dc:format>image/svg+xml</dc:format>
        <dc:type
           rdf:resource="http://purl.org/dc/dcmitype/StillImage" />
      </cc:Work>
    </rdf:RDF>
  </metadata>
  <defs
     id="defs21">
    <defs
       id="defs918" />
    <sodipodi:namedview
       inkscape:window-maximized="0"
       inkscape:window-y="27"
       inkscape:window-x="1920"
       inkscape:window-height="2096"
       inkscape:window-width="1920"
       fit-margin-bottom="2"
       fit-margin-right="2"
       fit-margin-left="2"
       fit-margin-top="2"
       units="px"
       showgrid="false"
       inkscape:current-layer="g995"
       inkscape:document-units="mm"
       inkscape:cy="39.631298"
       inkscape:cx="428.24698"
       inkscape:zoom="1.979899"
       inkscape:pageshadow="2"
       inkscape:pageopacity="0.0"
       borderopacity="1.0"
       bordercolor="#666666"
       pagecolor="#ffffff"
       id="base" />
  </defs>
  <sodipodi:namedview
     pagecolor="#ffffff"
     bordercolor="#666666"
     borderopacity="1"
     objecttolerance="10"
     gridtolerance="10"
     guidetolerance="10"
     inkscape:pageopacity="0"
     inkscape:pageshadow="2"
     inkscape:window-width="1920"
     inkscape:window-height="2096"
     id="namedview19"
     showgrid="false"
     inkscape:zoom="0.236"
     inkscape:cx="-143.06113"
     inkscape:cy="389.84602"
     inkscape:window-x="0"
     inkscape:window-y="27"
     inkscape:window-maximized="0"
     inkscape:current-layer="svg17" />
  <rect
     width="1000"
     height="1000"
     rx="200"
     ry="200"
     fill="#eeeeec"
     id="rect2" />
  <g
     id="g995"
     transform="matrix(96.682476,0,0,96.682476,-4292.5082,-10089.025)"
     style="stroke-width:0.26217723">
    <path
       sodipodi:nodetypes="ccccc"
       inkscape:connector-curvature="0"
       id="rect482"
       d="m 43.7625,109.87305 h 11.042204 l -1.961981,2.54 H 41.80053 Z"
       style="opacity:1;vector-effect:none;fill:#9acd32;fill-opacity:1;stroke:none;stroke-width:0.06936772;stroke-linecap:butt;stroke-linejoin:miter;stroke-miterlimit:4;stroke-dasharray:none;stroke-dashoffset:0;stroke-opacity:1;marker:none" />
    <path
       sodipodi:nodetypes="ccccc"
       inkscape:connector-curvature="0"
       id="rect480"
       d="m 46.296709,106.59222 h 11.042192 l -1.847508,2.39183 H 44.44919 Z"
       style="opacity:1;vector-effect:none;fill:#ff8c00;fill-opacity:1;stroke:none;stroke-width:0.06936772;stroke-linecap:butt;stroke-linejoin:miter;stroke-miterlimit:4;stroke-dasharray:none;stroke-dashoffset:0;stroke-opacity:1;marker:none" />
    <path
       sodipodi:nodetypes="csscccscccsccscccccccccsccccccscscscc"
       inkscape:connector-curvature="0"
       id="path415"
       style="font-style:normal;font-variant:normal;font-weight:normal;font-stretch:normal;font-size:10.58333302px;line-height:1.25;font-family:'Univers LT Std';-inkscape-font-specification:'Univers LT Std, Normal';font-variant-ligatures:normal;font-variant-caps:normal;font-variant-numeric:normal;font-feature-settings:normal;text-align:start;letter-spacing:0px;word-spacing:0px;writing-mode:lr-tb;text-anchor:start;fill:#000000;fill-opacity:1;stroke:none;stroke-width:0.06936772"
       d="m 46.983389,108.98405 h 2.508251 c 1.05833,0 1.5875,-0.45508 1.5875,-1.25941 0,-0.21872 -0.0388,-0.40569 -0.11642,-0.56092 -0.0705,-0.15522 -0.15522,-0.26811 -0.254,-0.33866 -0.0917,-0.0776 -0.22225,-0.13759 -0.39158,-0.17992 -0.16228,-0.0423 -0.26018,-0.0529 -0.39158,-0.0529 h -0.39159 -2.550581 v -0.88899 h 2.730501 c 0.49389,0 0.88194,0.0388 1.16417,0.11641 0.28222,0.0705 0.53622,0.21873 0.762,0.4445 0.35983,0.34573 0.53975,0.80081 0.53975,1.36525 0,0.23989 -0.0353,0.45862 -0.10583,0.65617 -0.0706,0.1905 -0.14817,0.3422 -0.23284,0.45508 -0.0847,0.11289 -0.20108,0.21873 -0.34925,0.3175 -0.14111,0.0917 -0.24694,0.15523 -0.3175,0.1905 -0.0706,0.0282 -0.16581,0.0635 -0.28575,0.10584 0.13406,0.0353 0.24695,0.0706 0.33867,0.10583 0.0917,0.0353 0.21872,0.10231 0.381,0.20108 0.16933,0.0988 0.30339,0.21167 0.40217,0.33867 0.10583,0.11995 0.19755,0.29281 0.27516,0.51858 0.0847,0.21873 0.127,0.46567 0.127,0.74084 0,0.74789 -0.30691,1.32644 -0.92075,1.73566 -0.16227,0.10584 -0.35277,0.18698 -0.5715,0.24342 -0.21167,0.0564 -0.39158,0.0882 -0.53975,0.0952 -0.14111,0.007 -0.34572,0.0106 -0.61383,0.0106 l -2.783421,1e-5 v -0.93135 h 2.836331 c 0.43745,0 0.79728,-0.0388 1.0795,-0.26457 0.28223,-0.23284 0.42334,-0.56092 0.42334,-0.98425 0,-0.38806 -0.13053,-0.70556 -0.39159,-0.9525 -0.254,-0.24695 -0.6103,-0.33868 -1.06891,-0.33868 h -2.878671 z" />
  </g>
</svg>
