<?xml version="1.0" encoding="UTF-8" standalone="no"?>
<svg
   xmlns="http://www.w3.org/2000/svg"
   id="svg924"
   version="1.1"
   viewBox="0 0 212.72499 30.204268">
  <g
     transform="translate(-41.271366,-83.669415)"
     id="layer1">
    <g
       style="stroke-width:0.26217723"
       transform="matrix(3.8142139,0,0,3.8142139,-117.63563,-318.97569)"
       id="g995">
      <path
         style="opacity:1;vector-effect:none;fill:#9acd32;fill-opacity:1;stroke:none;stroke-width:0.06936772;stroke-linecap:butt;stroke-linejoin:miter;stroke-miterlimit:4;stroke-dasharray:none;stroke-dashoffset:0;stroke-opacity:1;marker:none"
         d="m 43.7625,109.87305 h 50.998012 l -1.961981,2.54 H 41.80053 Z"
         id="rect482" />
      <path
         style="opacity:1;vector-effect:none;fill:#ff8c00;fill-opacity:1;stroke:none;stroke-width:0.06936772;stroke-linecap:butt;stroke-linejoin:miter;stroke-miterlimit:4;stroke-dasharray:none;stroke-dashoffset:0;stroke-opacity:1;marker:none"
         d="m 46.296709,106.59222 h 50.998 l -1.847508,2.39183 H 44.44919 Z"
         id="rect480" />
      <path
         d="m 46.983389,108.98405 h 2.508251 c 1.05833,0 1.5875,-0.45508 1.5875,-1.25941 0,-0.21872 -0.0388,-0.40569 -0.11642,-0.56092 -0.0705,-0.15522 -0.15522,-0.26811 -0.254,-0.33866 -0.0917,-0.0776 -0.22225,-0.13759 -0.39158,-0.17992 -0.16228,-0.0423 -0.26018,-0.0529 -0.39158,-0.0529 h -0.39159 -2.550581 v -0.88899 h 2.730501 c 0.49389,0 0.88194,0.0388 1.16417,0.11641 0.28222,0.0705 0.53622,0.21873 0.762,0.4445 0.35983,0.34573 0.53975,0.80081 0.53975,1.36525 0,0.23989 -0.0353,0.45862 -0.10583,0.65617 -0.0706,0.1905 -0.14817,0.3422 -0.23284,0.45508 -0.0847,0.11289 -0.20108,0.21873 -0.34925,0.3175 -0.14111,0.0917 -0.24694,0.15523 -0.3175,0.1905 -0.0706,0.0282 -0.16581,0.0635 -0.28575,0.10584 0.13406,0.0353 0.24695,0.0706 0.33867,0.10583 0.0917,0.0353 0.21872,0.10231 0.381,0.20108 0.16933,0.0988 0.30339,0.21167 0.40217,0.33867 0.10583,0.11995 0.19755,0.29281 0.27516,0.51858 0.0847,0.21873 0.127,0.46567 0.127,0.74084 0,0.74789 -0.30691,1.32644 -0.92075,1.73566 -0.16227,0.10584 -0.35277,0.18698 -0.5715,0.24342 -0.21167,0.0564 -0.39158,0.0882 -0.53975,0.0952 -0.14111,0.007 -0.34572,0.0106 -0.61383,0.0106 l -2.783421,1e-5 v -0.93135 h 2.836331 c 0.43745,0 0.79728,-0.0388 1.0795,-0.26457 0.28223,-0.23284 0.42334,-0.56092 0.42334,-0.98425 0,-0.38806 -0.13053,-0.70556 -0.39159,-0.9525 -0.254,-0.24695 -0.6103,-0.33868 -1.06891,-0.33868 h -2.878671 z"
         style="font-style:normal;font-variant:normal;font-weight:normal;font-stretch:normal;font-size:10.58333302px;line-height:1.25;font-family:'Univers LT Std';-inkscape-font-specification:'Univers LT Std, Normal';font-variant-ligatures:normal;font-variant-caps:normal;font-variant-numeric:normal;font-feature-settings:normal;text-align:start;letter-spacing:0px;word-spacing:0px;writing-mode:lr-tb;text-anchor:start;fill:#000000;fill-opacity:1;stroke:none;stroke-width:0.06936772"
         id="path415" />
      <path
         id="path417"
         transform="matrix(0.06936772,0,0,0.06936772,41.661795,105.56437)"
         d="M 175.58008,2.0019531 V 14.970703 h 69.11328 V 2.0019531 Z m 0,47.2949219 v 0.002 12.814453 36.617188 13.425784 0.002 h 15.25781 v -0.002 h 55.07617 V 98.730469 H 190.83789 V 62.113281 h 51.26172 V 49.298828 h -51.26172 v -0.002 z"
         style="font-style:normal;font-variant:normal;font-weight:normal;font-stretch:normal;font-size:10.58333302px;line-height:1.25;font-family:'Univers LT Std';-inkscape-font-specification:'Univers LT Std, Normal';font-variant-ligatures:normal;font-variant-caps:normal;font-variant-numeric:normal;font-feature-settings:normal;text-align:start;letter-spacing:0px;word-spacing:0px;writing-mode:lr-tb;text-anchor:start;fill:#000000;fill-opacity:1;stroke:none;stroke-width:1" />
      <path
         d="m 60.41363,108.99464 h 2.69874 c 0.47978,0 0.81492,-0.0564 1.00542,-0.16933 0.34572,-0.19756 0.51858,-0.52917 0.51858,-0.99484 0,-0.23283 -0.0423,-0.43391 -0.127,-0.60325 -0.0847,-0.16933 -0.17992,-0.2928 -0.28575,-0.37041 -0.0988,-0.0776 -0.23283,-0.13759 -0.40216,-0.17992 -0.16228,-0.0423 -0.28928,-0.067 -0.381,-0.0741 -0.0847,-0.007 -0.19403,-0.0106 -0.32809,-0.0106 l -2.69874,-1e-5 v -0.889 h 2.73049 c 0.79728,0 1.38289,0.11995 1.75684,0.35984 0.56444,0.35278 0.84666,0.87136 0.84666,1.55575 0,0.54328 -0.17992,0.99483 -0.53975,1.35466 -0.23283,0.23284 -0.53269,0.39864 -0.89958,0.49742 0.37395,0.0988 0.64911,0.254 0.8255,0.46567 0.17639,0.20461 0.28928,0.53975 0.33867,1.00541 0.11994,1.04423 0.27869,1.84503 0.47625,2.40242 h -1.13242 c -0.0988,-0.29633 -0.2152,-0.97014 -0.34925,-2.02142 -0.0635,-0.5715 -0.20105,-0.9525 -0.41275,-1.143 -0.21167,-0.1905 -0.63147,-0.28575 -1.25942,-0.28575 h -2.38124 z"
         style="font-style:normal;font-variant:normal;font-weight:normal;font-stretch:normal;font-size:10.58333302px;line-height:1.25;font-family:'Univers LT Std';-inkscape-font-specification:'Univers LT Std, Normal';font-variant-ligatures:normal;font-variant-caps:normal;font-variant-numeric:normal;font-feature-settings:normal;text-align:start;letter-spacing:0px;word-spacing:0px;writing-mode:lr-tb;text-anchor:start;fill:#000000;fill-opacity:1;stroke:none;stroke-width:0.06936772"
         id="path419" />
      <path
         id="path421"
         transform="matrix(0.06936772,0,0,0.06936772,41.661795,105.56437)"
         d="M 370.5625,2.0019531 V 14.970703 h 69.11328 V 2.0019531 Z m 0,47.2949219 v 0.002 12.814453 36.617188 13.425784 0.002 h 15.25586 v -0.002 h 55.07812 V 98.730469 H 385.81836 V 62.113281 h 51.26367 V 49.298828 h -51.26367 v -0.002 z"
         style="font-style:normal;font-variant:normal;font-weight:normal;font-stretch:normal;font-size:10.58333302px;line-height:1.25;font-family:'Univers LT Std';-inkscape-font-specification:'Univers LT Std, Normal';font-variant-ligatures:normal;font-variant-caps:normal;font-variant-numeric:normal;font-feature-settings:normal;text-align:start;letter-spacing:0px;word-spacing:0px;writing-mode:lr-tb;text-anchor:start;fill:#000000;fill-opacity:1;stroke:none;stroke-width:1" />
      <path
         id="path423"
         d="m 83.95087,105.70311 v 0.88911 h 1.05833 v -0.88911 z m 0,3.28094 v 4.36046 h 1.05833 v -4.36046 z"
         style="font-style:normal;font-variant:normal;font-weight:normal;font-stretch:normal;font-size:10.58333302px;line-height:1.25;font-family:'Univers LT Std';-inkscape-font-specification:'Univers LT Std, Normal';font-variant-ligatures:normal;font-variant-caps:normal;font-variant-numeric:normal;font-feature-settings:normal;text-align:start;letter-spacing:0px;word-spacing:0px;writing-mode:lr-tb;text-anchor:start;fill:#000000;fill-opacity:1;stroke:none;stroke-width:0.06936772" />
      <path
         id="path425"
         d="m 73.98146,106.60281 v -0.89959 h 1.873271 l 1.429369,4.16984 h -1.0883 l -1.18753,-3.27025 z"
         style="fill:#000000;stroke:none;stroke-width:0.06936772px;stroke-linecap:butt;stroke-linejoin:miter;stroke-opacity:1" />
      <path
         id="path427"
         d="m 79.07313,108.98405 -1.299141,3.42925 h -0.68162 l 0.328661,0.93121 h 1.005631 l 0.33951,-0.93121 1.250059,-3.42925 z"
         style="fill:#000000;stroke:none;stroke-width:0.06936772px;stroke-linecap:butt;stroke-linejoin:miter;stroke-opacity:1" />
      <path
         id="path429"
         d="m 80.22551,105.70311 -0.315741,0.89969 h 1.024753 v 2.38125 0.88883 h 1.037137 v -0.88883 -2.38125 -0.89969 z"
         style="fill:#000000;stroke:none;stroke-width:0.06936772px;stroke-linecap:butt;stroke-linejoin:miter;stroke-opacity:1" />
      <path
         id="path431"
         d="m 80.93453,112.41306 -8e-6,0.93133 h 1.037148 v -0.93133 z"
         style="fill:#000000;stroke:none;stroke-width:0.06936772px;stroke-linecap:butt;stroke-linejoin:miter;stroke-opacity:1" />
      <path
         style="fill:#000000;stroke:none;stroke-width:0.06936772px;stroke-linecap:butt;stroke-linejoin:miter;stroke-opacity:1"
         d="m 73.981409,108.98405 v 0.78341 0.10542 3.47163 h 1.026811 v -3.47163 -0.10542 -0.78341 z"
         id="path433" />
      <path
         id="path435"
         d="m 86.448391,105.70311 v 0.93121 h 5.55625 l 0.727599,-0.93121 z m 2.462379,3.28094 -2.57865,3.30212 v 1.05834 h 5.746929 V 112.4133 H 87.5491 l 2.698541,-3.42925 z"
         style="font-style:normal;font-variant:normal;font-weight:normal;font-stretch:normal;font-size:10.58333302px;line-height:1.25;font-family:'Univers LT Std';-inkscape-font-specification:'Univers LT Std, Normal';font-variant-ligatures:normal;font-variant-caps:normal;font-variant-numeric:normal;font-feature-settings:normal;text-align:start;letter-spacing:0px;word-spacing:0px;writing-mode:lr-tb;text-anchor:start;fill:#000000;fill-opacity:1;stroke:none;stroke-width:0.06936772" />
      <path
         style="opacity:1;vector-effect:none;fill:#000000;fill-opacity:1;stroke:none;stroke-width:0.06936772;stroke-linecap:butt;stroke-linejoin:miter;stroke-miterlimit:4;stroke-dasharray:none;stroke-dashoffset:0;stroke-opacity:1;marker:none"
         d="m 60.413582,112.41305 h 1.04775 v 0.93134 h -1.04775 z"
         id="rect474" />
    </g>
  </g>
</svg>
